<?xml version="1.0" encoding="UTF-8" standalone="no"?>
<!DOCTYPE svg PUBLIC "-//W3C//DTD SVG 1.1//EN"
 "http://www.w3.org/Graphics/SVG/1.1/DTD/svg11.dtd">
<!-- Generated by graphviz version 3.0.0 (20220226.1711)
 -->
<!-- Title: Application Cross Validation Workflow Pages: 1 -->
<svg width="1474pt" height="963pt"
 viewBox="0.00 0.00 1474.00 963.00" xmlns="http://www.w3.org/2000/svg" xmlns:xlink="http://www.w3.org/1999/xlink">
<g id="graph0" class="graph" transform="scale(1 1) rotate(0) translate(144 819)">
<title>Application Cross Validation Workflow</title>
<text text-anchor="middle" x="593" y="-9" font-family="Sans-Serif" font-size="15.00" fill="#2d3436">Application Cross Validation Workflow</text>
<g id="clust4" class="cluster">
<title>cluster_Output Normalization Flow</title>
<path fill="#e5f5fd" stroke="#aeb6be" d="M779,-217C779,-217 1027,-217 1027,-217 1033,-217 1039,-223 1039,-229 1039,-229 1039,-380 1039,-380 1039,-386 1033,-392 1027,-392 1027,-392 779,-392 779,-392 773,-392 767,-386 767,-380 767,-380 767,-229 767,-229 767,-223 773,-217 779,-217"/>
<text text-anchor="middle" x="846" y="-378.4" font-family="Sans-Serif" font-size="12.00" fill="#2d3436">Output Normalization Flow</text>
</g>
<g id="clust5" class="cluster">
<title>cluster_Ground Truth Flow</title>
<path fill="#e5f5fd" stroke="#aeb6be" d="M779,-33C779,-33 1027,-33 1027,-33 1033,-33 1039,-39 1039,-45 1039,-45 1039,-196 1039,-196 1039,-202 1033,-208 1027,-208 1027,-208 779,-208 779,-208 773,-208 767,-202 767,-196 767,-196 767,-45 767,-45 767,-39 773,-33 779,-33"/>
<text text-anchor="middle" x="825" y="-194.4" font-family="Sans-Serif" font-size="12.00" fill="#2d3436">Ground Truth Flow</text>
</g>
<g id="clust1" class="cluster">
<title>cluster_Data Processing Flow</title>
<path fill="#e5f5fd" stroke="#aeb6be" d="M159,-95C159,-95 725,-95 725,-95 731,-95 737,-101 737,-107 737,-107 737,-655 737,-655 737,-661 731,-667 725,-667 725,-667 159,-667 159,-667 153,-667 147,-661 147,-655 147,-655 147,-107 147,-107 147,-101 153,-95 159,-95"/>
<text text-anchor="middle" x="214" y="-653.4" font-family="Sans-Serif" font-size="12.00" fill="#2d3436">Data Processing Flow</text>
</g>
<g id="clust2" class="cluster">
<title>cluster_Applications</title>
<path fill="#ebf3e7" stroke="#aeb6be" d="M469,-103C469,-103 562,-103 562,-103 568,-103 574,-109 574,-115 574,-115 574,-626 574,-626 574,-632 568,-638 562,-638 562,-638 469,-638 469,-638 463,-638 457,-632 457,-626 457,-626 457,-115 457,-115 457,-109 463,-103 469,-103"/>
<text text-anchor="middle" x="498.5" y="-624.4" font-family="Sans-Serif" font-size="12.00" fill="#2d3436">Applications</text>
</g>
<g id="clust3" class="cluster">
<title>cluster_Outputs</title>
<path fill="#ebf3e7" stroke="#aeb6be" d="M624,-103C624,-103 717,-103 717,-103 723,-103 729,-109 729,-115 729,-115 729,-626 729,-626 729,-632 723,-638 717,-638 717,-638 624,-638 624,-638 618,-638 612,-632 612,-626 612,-626 612,-115 612,-115 612,-109 618,-103 624,-103"/>
<text text-anchor="middle" x="641" y="-624.4" font-family="Sans-Serif" font-size="12.00" fill="#2d3436">Outputs</text>
</g>
<!-- 26dcc2184a2e4735aca42be836f4eaaa -->
<g id="node1" class="node">
<title>26dcc2184a2e4735aca42be836f4eaaa</title>
<image xlink:href="/Library/Frameworks/Python.framework/Versions/3.9/lib/python3.9/site-packages/resources/aws/general/user.png" width="101px" height="101px" preserveAspectRatio="xMinYMin meet" x="0" y="-163.5"/>
<text text-anchor="middle" x="50.5" y="-47.1" font-family="Sans-Serif" font-size="8.00" fill="#2d3436">RS/PM</text>
</g>
<!-- 0bc5458fb9244fa891ad07d21749d8aa -->
<g id="node2" class="node">
<title>0bc5458fb9244fa891ad07d21749d8aa</title>
<image xlink:href="/Library/Frameworks/Python.framework/Versions/3.9/lib/python3.9/site-packages/resources/aws/storage/simple-storage-service-s3.png" width="101px" height="101px" preserveAspectRatio="xMinYMin meet" x="155" y="-275.5"/>
<text text-anchor="middle" x="205.5" y="-159.1" font-family="Sans-Serif" font-size="8.00" fill="#2d3436">Raw Data Input</text>
</g>
<!-- 26dcc2184a2e4735aca42be836f4eaaa&#45;&gt;0bc5458fb9244fa891ad07d21749d8aa -->
<g id="edge10" class="edge">
<title>26dcc2184a2e4735aca42be836f4eaaa&#45;&gt;0bc5458fb9244fa891ad07d21749d8aa</title>
<path fill="none" stroke="#7b8894" d="M101.25,-169C101.25,-169 144.9,-169 144.9,-169"/>
<polygon fill="#7b8894" stroke="#7b8894" points="144.9,-172.5 154.9,-169 144.9,-165.5 144.9,-172.5"/>
</g>
<!-- 0144337993ba4bd7bd54a349f8f7bebc -->
<g id="node12" class="node">
<title>0144337993ba4bd7bd54a349f8f7bebc</title>
<image xlink:href="/Library/Frameworks/Python.framework/Versions/3.9/lib/python3.9/site-packages/resources/aws/iot/iot-car.png" width="101px" height="101px" preserveAspectRatio="xMinYMin meet" x="775" y="-160.5"/>
<text text-anchor="middle" x="825.5" y="-44.1" font-family="Sans-Serif" font-size="8.00" fill="#2d3436">IoT</text>
</g>
<!-- 26dcc2184a2e4735aca42be836f4eaaa&#45;&gt;0144337993ba4bd7bd54a349f8f7bebc -->
<g id="edge14" class="edge">
<title>26dcc2184a2e4735aca42be836f4eaaa&#45;&gt;0144337993ba4bd7bd54a349f8f7bebc</title>
<path fill="none" stroke="#7b8894" d="M101.05,-78C101.05,-78 764.91,-78 764.91,-78"/>
<polygon fill="#7b8894" stroke="#7b8894" points="764.91,-81.5 774.91,-78 764.91,-74.5 764.91,-81.5"/>
</g>
<!-- e6d1e14dc07746428d3f6c75465e07c9 -->
<g id="node3" class="node">
<title>e6d1e14dc07746428d3f6c75465e07c9</title>
<image xlink:href="/Library/Frameworks/Python.framework/Versions/3.9/lib/python3.9/site-packages/resources/aws/compute/lambda.png" width="101px" height="101px" preserveAspectRatio="xMinYMin meet" x="310" y="-320.5"/>
<text text-anchor="middle" x="360.5" y="-204.1" font-family="Sans-Serif" font-size="8.00" fill="#2d3436">Input Normalization Handler</text>
</g>
<!-- 0bc5458fb9244fa891ad07d21749d8aa&#45;&gt;e6d1e14dc07746428d3f6c75465e07c9 -->
<g id="edge1" class="edge">
<title>0bc5458fb9244fa891ad07d21749d8aa&#45;&gt;e6d1e14dc07746428d3f6c75465e07c9</title>
<path fill="none" stroke="#7b8894" d="M256.25,-247.5C256.25,-247.5 299.9,-247.5 299.9,-247.5"/>
<polygon fill="#7b8894" stroke="#7b8894" points="299.9,-251 309.9,-247.5 299.9,-244 299.9,-251"/>
</g>
<!-- ec2b9de7941c4f8896983bcbf0163545 -->
<g id="node4" class="node">
<title>ec2b9de7941c4f8896983bcbf0163545</title>
<image xlink:href="/Library/Frameworks/Python.framework/Versions/3.9/lib/python3.9/site-packages/resources/aws/compute/fargate.png" width="101px" height="101px" preserveAspectRatio="xMinYMin meet" x="465" y="-590.5"/>
<text text-anchor="middle" x="515.5" y="-474.1" font-family="Sans-Serif" font-size="8.00" fill="#2d3436">App&#45;A</text>
</g>
<!-- e6d1e14dc07746428d3f6c75465e07c9&#45;&gt;ec2b9de7941c4f8896983bcbf0163545 -->
<g id="edge2" class="edge">
<title>e6d1e14dc07746428d3f6c75465e07c9&#45;&gt;ec2b9de7941c4f8896983bcbf0163545</title>
<path fill="none" stroke="#7b8894" d="M361,-338.83C361,-418.83 361,-540 361,-540 361,-540 454.91,-540 454.91,-540"/>
<polygon fill="#7b8894" stroke="#7b8894" points="454.91,-543.5 464.91,-540 454.91,-536.5 454.91,-543.5"/>
</g>
<!-- 406a19d135774f1180c902dafa5aab79 -->
<g id="node5" class="node">
<title>406a19d135774f1180c902dafa5aab79</title>
<image xlink:href="/Library/Frameworks/Python.framework/Versions/3.9/lib/python3.9/site-packages/resources/aws/compute/fargate.png" width="101px" height="101px" preserveAspectRatio="xMinYMin meet" x="465" y="-410.5"/>
<text text-anchor="middle" x="515.5" y="-294.1" font-family="Sans-Serif" font-size="8.00" fill="#2d3436">App&#45;B</text>
</g>
<!-- e6d1e14dc07746428d3f6c75465e07c9&#45;&gt;406a19d135774f1180c902dafa5aab79 -->
<g id="edge3" class="edge">
<title>e6d1e14dc07746428d3f6c75465e07c9&#45;&gt;406a19d135774f1180c902dafa5aab79</title>
<path fill="none" stroke="#7b8894" d="M411.25,-315C411.25,-315 454.9,-315 454.9,-315"/>
<polygon fill="#7b8894" stroke="#7b8894" points="454.9,-318.5 464.9,-315 454.9,-311.5 454.9,-318.5"/>
</g>
<!-- 74895b0d2bc94b79a0af2be3568863be -->
<g id="node6" class="node">
<title>74895b0d2bc94b79a0af2be3568863be</title>
<image xlink:href="/Library/Frameworks/Python.framework/Versions/3.9/lib/python3.9/site-packages/resources/aws/compute/fargate.png" width="101px" height="101px" preserveAspectRatio="xMinYMin meet" x="465" y="-230.5"/>
<text text-anchor="middle" x="515.5" y="-114.1" font-family="Sans-Serif" font-size="8.00" fill="#2d3436">App&#45;C</text>
</g>
<!-- e6d1e14dc07746428d3f6c75465e07c9&#45;&gt;74895b0d2bc94b79a0af2be3568863be -->
<g id="edge4" class="edge">
<title>e6d1e14dc07746428d3f6c75465e07c9&#45;&gt;74895b0d2bc94b79a0af2be3568863be</title>
<path fill="none" stroke="#7b8894" d="M411.25,-225C411.25,-225 454.9,-225 454.9,-225"/>
<polygon fill="#7b8894" stroke="#7b8894" points="454.9,-228.5 464.9,-225 454.9,-221.5 454.9,-228.5"/>
</g>
<!-- 262a19d4ba3349a6be54c5382a16f24a -->
<g id="node7" class="node">
<title>262a19d4ba3349a6be54c5382a16f24a</title>
<image xlink:href="/Library/Frameworks/Python.framework/Versions/3.9/lib/python3.9/site-packages/resources/aws/storage/simple-storage-service-s3.png" width="101px" height="101px" preserveAspectRatio="xMinYMin meet" x="620" y="-590.5"/>
<text text-anchor="middle" x="670.5" y="-474.1" font-family="Sans-Serif" font-size="8.00" fill="#2d3436">App&#45;A&#45;Output</text>
</g>
<!-- ec2b9de7941c4f8896983bcbf0163545&#45;&gt;262a19d4ba3349a6be54c5382a16f24a -->
<g id="edge5" class="edge">
<title>ec2b9de7941c4f8896983bcbf0163545&#45;&gt;262a19d4ba3349a6be54c5382a16f24a</title>
<path fill="none" stroke="#7b8894" d="M566.25,-540C566.25,-540 609.9,-540 609.9,-540"/>
<polygon fill="#7b8894" stroke="#7b8894" points="609.9,-543.5 619.9,-540 609.9,-536.5 609.9,-543.5"/>
</g>
<!-- bd043ab0485c46c0b762e4a5a0ab31a9 -->
<g id="node8" class="node">
<title>bd043ab0485c46c0b762e4a5a0ab31a9</title>
<image xlink:href="/Library/Frameworks/Python.framework/Versions/3.9/lib/python3.9/site-packages/resources/aws/storage/simple-storage-service-s3.png" width="101px" height="101px" preserveAspectRatio="xMinYMin meet" x="620" y="-410.5"/>
<text text-anchor="middle" x="670.5" y="-294.1" font-family="Sans-Serif" font-size="8.00" fill="#2d3436">App&#45;B&#45;Output</text>
</g>
<!-- 406a19d135774f1180c902dafa5aab79&#45;&gt;bd043ab0485c46c0b762e4a5a0ab31a9 -->
<g id="edge6" class="edge">
<title>406a19d135774f1180c902dafa5aab79&#45;&gt;bd043ab0485c46c0b762e4a5a0ab31a9</title>
<path fill="none" stroke="#7b8894" d="M566.25,-360C566.25,-360 609.9,-360 609.9,-360"/>
<polygon fill="#7b8894" stroke="#7b8894" points="609.9,-363.5 619.9,-360 609.9,-356.5 609.9,-363.5"/>
</g>
<!-- 1f082c4f3e0c406c9a8b13f763e2f30a -->
<g id="node9" class="node">
<title>1f082c4f3e0c406c9a8b13f763e2f30a</title>
<image xlink:href="/Library/Frameworks/Python.framework/Versions/3.9/lib/python3.9/site-packages/resources/aws/storage/simple-storage-service-s3.png" width="101px" height="101px" preserveAspectRatio="xMinYMin meet" x="620" y="-230.5"/>
<text text-anchor="middle" x="670.5" y="-114.1" font-family="Sans-Serif" font-size="8.00" fill="#2d3436">App&#45;C&#45;Output</text>
</g>
<!-- 74895b0d2bc94b79a0af2be3568863be&#45;&gt;1f082c4f3e0c406c9a8b13f763e2f30a -->
<g id="edge7" class="edge">
<title>74895b0d2bc94b79a0af2be3568863be&#45;&gt;1f082c4f3e0c406c9a8b13f763e2f30a</title>
<path fill="none" stroke="#7b8894" d="M566.25,-180C566.25,-180 609.9,-180 609.9,-180"/>
<polygon fill="#7b8894" stroke="#7b8894" points="609.9,-183.5 619.9,-180 609.9,-176.5 609.9,-183.5"/>
</g>
<!-- 13c5a56847ef4ccfa00c59b82929b9c9 -->
<g id="node10" class="node">
<title>13c5a56847ef4ccfa00c59b82929b9c9</title>
<image xlink:href="/Library/Frameworks/Python.framework/Versions/3.9/lib/python3.9/site-packages/resources/aws/compute/lambda.png" width="101px" height="101px" preserveAspectRatio="xMinYMin meet" x="775" y="-344.5"/>
<text text-anchor="middle" x="825.5" y="-228.1" font-family="Sans-Serif" font-size="8.00" fill="#2d3436">Output Normalization Handler</text>
</g>
<!-- 262a19d4ba3349a6be54c5382a16f24a&#45;&gt;13c5a56847ef4ccfa00c59b82929b9c9 -->
<g id="edge11" class="edge">
<title>262a19d4ba3349a6be54c5382a16f24a&#45;&gt;13c5a56847ef4ccfa00c59b82929b9c9</title>
<path fill="none" stroke="#7b8894" d="M721.42,-540C766.77,-540 826,-540 826,-540 826,-540 826,-372.52 826,-372.52"/>
<polygon fill="#7b8894" stroke="#7b8894" points="829.5,-372.52 826,-362.52 822.5,-372.52 829.5,-372.52"/>
</g>
<!-- bd043ab0485c46c0b762e4a5a0ab31a9&#45;&gt;13c5a56847ef4ccfa00c59b82929b9c9 -->
<g id="edge12" class="edge">
<title>bd043ab0485c46c0b762e4a5a0ab31a9&#45;&gt;13c5a56847ef4ccfa00c59b82929b9c9</title>
<path fill="none" stroke="#7b8894" d="M721.25,-327C721.25,-327 764.9,-327 764.9,-327"/>
<polygon fill="#7b8894" stroke="#7b8894" points="764.9,-330.5 774.9,-327 764.9,-323.5 764.9,-330.5"/>
</g>
<!-- 1f082c4f3e0c406c9a8b13f763e2f30a&#45;&gt;13c5a56847ef4ccfa00c59b82929b9c9 -->
<g id="edge13" class="edge">
<title>1f082c4f3e0c406c9a8b13f763e2f30a&#45;&gt;13c5a56847ef4ccfa00c59b82929b9c9</title>
<path fill="none" stroke="#7b8894" d="M721.25,-237C721.25,-237 764.9,-237 764.9,-237"/>
<polygon fill="#7b8894" stroke="#7b8894" points="764.9,-240.5 774.9,-237 764.9,-233.5 764.9,-240.5"/>
</g>
<!-- e550e44fedf74850b8808136c5502913 -->
<g id="node11" class="node">
<title>e550e44fedf74850b8808136c5502913</title>
<image xlink:href="/Library/Frameworks/Python.framework/Versions/3.9/lib/python3.9/site-packages/resources/aws/storage/simple-storage-service-s3.png" width="101px" height="101px" preserveAspectRatio="xMinYMin meet" x="930" y="-344.5"/>
<text text-anchor="middle" x="980.5" y="-228.1" font-family="Sans-Serif" font-size="8.00" fill="#2d3436">Normalized Output</text>
</g>
<!-- 13c5a56847ef4ccfa00c59b82929b9c9&#45;&gt;e550e44fedf74850b8808136c5502913 -->
<g id="edge8" class="edge">
<title>13c5a56847ef4ccfa00c59b82929b9c9&#45;&gt;e550e44fedf74850b8808136c5502913</title>
<path fill="none" stroke="#7b8894" d="M876.25,-294C876.25,-294 919.9,-294 919.9,-294"/>
<polygon fill="#7b8894" stroke="#7b8894" points="919.9,-297.5 929.9,-294 919.9,-290.5 919.9,-297.5"/>
</g>
<!-- d0825badcc1f43d1b0c83a190659df3e -->
<g id="node14" class="node">
<title>d0825badcc1f43d1b0c83a190659df3e</title>
<image xlink:href="/Library/Frameworks/Python.framework/Versions/3.9/lib/python3.9/site-packages/resources/aws/general/user.png" width="101px" height="101px" preserveAspectRatio="xMinYMin meet" x="1085" y="-252.5"/>
<text text-anchor="middle" x="1135.5" y="-136.1" font-family="Sans-Serif" font-size="8.00" fill="#2d3436">RS</text>
</g>
<!-- e550e44fedf74850b8808136c5502913&#45;&gt;d0825badcc1f43d1b0c83a190659df3e -->
<g id="edge15" class="edge">
<title>e550e44fedf74850b8808136c5502913&#45;&gt;d0825badcc1f43d1b0c83a190659df3e</title>
<path fill="none" stroke="#7b8894" d="M1031.25,-248C1031.25,-248 1074.9,-248 1074.9,-248"/>
<polygon fill="#7b8894" stroke="#7b8894" points="1074.9,-251.5 1084.9,-248 1074.9,-244.5 1074.9,-251.5"/>
</g>
<!-- c2c108ba4ffa43b6823d34882d4b635f -->
<g id="node13" class="node">
<title>c2c108ba4ffa43b6823d34882d4b635f</title>
<image xlink:href="/Library/Frameworks/Python.framework/Versions/3.9/lib/python3.9/site-packages/resources/aws/storage/simple-storage-service-s3.png" width="101px" height="101px" preserveAspectRatio="xMinYMin meet" x="930" y="-160.5"/>
<text text-anchor="middle" x="980.5" y="-44.1" font-family="Sans-Serif" font-size="8.00" fill="#2d3436">Real World Output</text>
</g>
<!-- 0144337993ba4bd7bd54a349f8f7bebc&#45;&gt;c2c108ba4ffa43b6823d34882d4b635f -->
<g id="edge9" class="edge">
<title>0144337993ba4bd7bd54a349f8f7bebc&#45;&gt;c2c108ba4ffa43b6823d34882d4b635f</title>
<path fill="none" stroke="#7b8894" d="M876.25,-110C876.25,-110 919.9,-110 919.9,-110"/>
<polygon fill="#7b8894" stroke="#7b8894" points="919.9,-113.5 929.9,-110 919.9,-106.5 919.9,-113.5"/>
</g>
<!-- c2c108ba4ffa43b6823d34882d4b635f&#45;&gt;d0825badcc1f43d1b0c83a190659df3e -->
<g id="edge16" class="edge">
<title>c2c108ba4ffa43b6823d34882d4b635f&#45;&gt;d0825badcc1f43d1b0c83a190659df3e</title>
<path fill="none" stroke="#7b8894" d="M1031.25,-156C1031.25,-156 1074.9,-156 1074.9,-156"/>
<polygon fill="#7b8894" stroke="#7b8894" points="1074.9,-159.5 1084.9,-156 1074.9,-152.5 1074.9,-159.5"/>
</g>
</g>
</svg>
